# xmcd
#
# Track frame offsets:
#	150
#	32658
#	45781
#	68320
#	79680
#	92479
#	103925
#	131735
#	146785
#	159109
#	169429
#	181782
#	193427
#	205669
#
# Disc length: 2877 seconds
#
# Revision: 1
# Processed by: cddbd v1.5.1PL0 Copyright (c) Steve Scherf et al.
# Submitted via: audiograbber 1.83.01
#
DISCID=b40b3b0e
DTITLE=Rhytm'n Blues - Rhythm'n'Blues - CD2
DYEAR=1900
DGENRE=Blues
TTITLE0=The temptation - papa was a rolling stones
TTITLE1=Sam and Dave - soul man
TTITLE2=Marvin gaye - i heard it trough the grapevine
TTITLE3=The drifters - save the last dance for me
TTITLE4=Percy slage - when a man loves a woman
TTITLE5=The mar-keys - last night
TTITLE6=Gladys knight and the pips - you and me against the world
TTITLE7=Ben E. King - supernational thing
TTITLE8=The supremes - baby loves
TTITLE9=Rufus thomas - walking the dog
TTITLE10=King kurtis - groovin' with the king
TTITLE11=Jerry butler - make it easy on yourself
TTITLE12=Eddie floyd - bring it on home to me
TTITLE13=Tom jones - i can't turn you loose
EXTD=
EXTT0=
EXTT1=
EXTT2=
EXTT3=
EXTT4=
EXTT5=
EXTT6=
EXTT7=
EXTT8=
EXTT9=
EXTT10=
EXTT11=
EXTT12=
EXTT13=
PLAYORDER=
